<svg width="46" height="61" viewBox="0 0 46 61" fill="none" xmlns="http://www.w3.org/2000/svg">
<path fill-rule="evenodd" clip-rule="evenodd" d="M21.8973 0.812907C21.2291 1.05326 20.6343 1.44163 18.953 2.73559C16.8382 4.3634 16.443 4.48159 13.2037 4.45526C9.0357 4.42133 8.51603 4.81111 7.27964 8.89906C6.40401 11.7941 6.17864 12.1084 3.80579 13.7446C0.126228 16.2817 -0.0873264 16.9495 1.42183 21.2015C2.35222 23.823 2.34192 24.325 1.29557 27.3726C-0.0313922 31.2374 0.235872 31.9863 3.82077 34.4481C6.15805 36.0529 6.4039 36.3966 7.27976 39.2829C7.55311 40.184 7.86554 41.1581 7.97402 41.4477L8.17107 41.9743L5.76066 48.1382C2.48784 56.5073 2.37247 56.0696 7.67984 55.4204C9.4497 55.2038 11.0101 55.0255 11.1474 55.0241C11.3296 55.0223 12.0033 55.7334 13.6465 57.662C17.2469 61.8883 16.8508 62.1284 20.1239 53.7344L22.5193 47.5911H23.0118H23.5045L25.8771 53.6759C29.1869 62.1641 28.7504 61.8913 32.3263 57.7076C33.784 56.0022 34.7011 55.0216 34.8384 55.0216C34.9573 55.0216 36.3741 55.1795 37.987 55.3726C43.6915 56.0555 43.5403 56.5373 40.2565 48.14L37.8452 41.9743L38.0442 41.4477C38.1536 41.1581 38.4536 40.2139 38.7109 39.3495C39.5709 36.4607 39.862 36.0515 42.1971 34.4481C45.8312 31.9525 46.0722 31.2319 44.6475 27.1177C43.6822 24.3304 43.6676 23.8542 44.4767 21.555C46.0912 16.9671 45.9142 16.3074 42.4201 13.8894C39.813 12.0853 39.6253 11.8317 38.7472 8.92889C37.4909 4.7753 37.0272 4.42238 32.8704 4.45467C29.4838 4.48089 29.2856 4.41817 26.7861 2.52461C24.3257 0.660786 23.3095 0.304941 21.8973 0.812907ZM23.785 3.30043C23.9865 3.41592 24.8284 4.02523 25.6558 4.65465C28.2015 6.59092 28.8989 6.81102 32.4874 6.81102C35.782 6.81102 35.5731 6.66159 36.462 9.65404C37.4531 12.9905 38.0061 13.7495 40.8926 15.734C43.4611 17.5 43.4071 17.3425 42.4159 20.1781C41.2037 23.6461 41.2058 24.668 42.4324 28.0578C43.4322 30.8208 43.4791 30.6861 40.9077 32.4336C38.1778 34.2887 37.4104 35.3476 36.4532 38.5808C35.5933 41.4855 35.8058 41.3307 32.6781 41.3307C28.9435 41.3307 28.2496 41.5542 25.5014 43.6422C22.9475 45.5825 23.105 45.5797 20.6426 43.7289C17.7358 41.5441 17.0924 41.3307 13.4136 41.3307C10.2375 41.3307 10.4024 41.4449 9.61025 38.6978C8.62193 35.2705 8.0021 34.4017 5.164 32.4657C2.57362 30.6988 2.63973 30.8661 3.5177 28.3018C4.82383 24.4871 4.83202 23.6975 3.60195 20.1781C2.60966 17.3394 2.55337 17.5016 5.15124 15.7173C7.90369 13.8268 8.6121 12.8544 9.55104 9.67791C10.4454 6.65235 10.221 6.81102 13.607 6.81102C17.2157 6.81102 17.7632 6.63421 20.4092 4.61499C22.6499 2.9048 22.9144 2.80183 23.785 3.30043ZM20.7271 8.85904C8.38778 10.8228 3.28449 25.7467 11.8889 34.7054C20.5384 43.7109 35.5741 39.3155 38.1104 27.0399C40.232 16.7714 31.09 7.20993 20.7271 8.85904ZM25.1392 11.2648C33.5634 12.4503 38.4824 22.0264 34.6625 29.8046C29.8986 39.5054 16.1193 39.5054 11.3553 29.8046C6.6852 20.295 14.511 9.76895 25.1392 11.2648ZM22.4823 15.3769C22.1232 15.5821 21.9767 15.8255 20.8441 18.0971L19.791 20.2093L17.3081 20.5737C13.1707 21.181 13.031 21.6182 16.0412 24.5389L17.8502 26.2942L17.4465 28.576C16.9522 31.3697 16.9453 31.6076 17.3468 32.0091C17.9713 32.6336 18.2016 32.5831 20.6692 31.2792C23.3435 29.8661 22.6916 29.8726 25.2559 31.2335C28.9564 33.1973 29.3358 32.8933 28.5736 28.576L28.1707 26.2942L29.9615 24.5736C33.0106 21.6438 32.8666 21.1839 28.7097 20.5737L26.2269 20.2093L25.0876 17.9021C23.7765 15.2473 23.3809 14.8637 22.4823 15.3769ZM23.828 20.7069C24.722 22.4601 24.642 22.4044 26.6684 22.6836C28.4411 22.928 28.3995 22.7988 27.0944 24.0024C25.6144 25.3673 25.6131 25.371 25.9327 27.2791C26.2496 29.1708 26.3555 29.0927 24.6554 28.2197C22.9619 27.3499 23.0096 27.3485 21.1659 28.3201C20.2436 28.806 19.8495 28.9622 19.8495 28.8416C19.8495 28.7469 19.9602 28.0142 20.0956 27.2132C20.4031 25.393 20.3969 25.3759 18.9565 24.0538C17.6058 22.814 17.5731 22.9284 19.3495 22.6836C21.3758 22.4044 21.2958 22.4601 22.1898 20.7069C22.6081 19.8864 22.9767 19.2152 23.0089 19.2152C23.0411 19.2152 23.4097 19.8864 23.828 20.7069ZM13.1796 43.7326C16.6782 43.7487 16.8003 43.7866 19.1275 45.5801C19.9657 46.2261 20.3201 46.5696 20.2834 46.7003C20.2541 46.8041 19.375 49.0742 18.3297 51.7451C17.2844 54.416 16.3913 56.702 16.3451 56.8252C16.2757 57.0105 15.9613 56.6969 14.5273 55.0115C12.1019 52.161 12.7295 52.4024 8.94607 52.8648C7.59348 53.0301 6.46615 53.1449 6.44111 53.1197C6.25295 52.9317 10.1314 43.5242 10.3538 43.6292C10.4599 43.6795 11.7315 43.7259 13.1796 43.7326ZM37.7755 48.3503C38.792 50.9475 39.6029 53.0935 39.5774 53.119C39.5519 53.1445 38.4244 53.0301 37.0718 52.8648C33.2883 52.4024 33.916 52.161 31.4906 55.0115C30.0561 56.6975 29.7421 57.0106 29.6725 56.8252C29.6262 56.702 28.7323 54.416 27.686 51.7451C26.6398 49.0742 25.7607 46.8034 25.7322 46.6989C25.6963 46.5666 26.0792 46.203 26.9949 45.4996C29.1809 43.821 29.7913 43.637 32.8259 43.7415C33.8302 43.7761 34.889 43.7541 35.1786 43.6927C35.4682 43.6312 35.7551 43.5916 35.8161 43.6044C35.8772 43.6174 36.7589 45.7531 37.7755 48.3503Z" fill="white"/>
</svg>
