<svg width="56" height="55" viewBox="0 0 56 55" fill="none" xmlns="http://www.w3.org/2000/svg">
<path fill-rule="evenodd" clip-rule="evenodd" d="M13.6816 0.956476C12.6968 1.34938 12.9379 6.44815 14.0795 9.37125C15.7206 13.5734 19.8017 15.5538 24.5879 14.4705L25.2741 14.3152L25.7563 15.3266C26.9819 17.8973 27.8129 21.1242 28.2895 25.1639C28.5978 27.777 28.5197 36.2108 28.1842 36.5463C27.863 36.8675 24.7466 35.8856 23.082 34.9387C12.8808 29.136 5.51698 29.4335 0.442365 35.8533L0.0214844 36.3859V41.1241V45.8623L0.272636 46.1543C0.503241 46.4226 0.634718 46.4584 1.88468 46.5938C8.26992 47.2862 9.72284 47.7039 17.4557 51.071C23.6576 53.7715 24.1955 53.9555 26.567 54.1872C29.3848 54.4623 30.9127 54.1173 36.2516 52.0002C38.3554 51.166 40.5686 50.3503 41.1697 50.1875C44.4152 49.3089 46.938 47.3774 48.6586 44.4538C49.1713 43.5827 55.9787 28.0729 55.9787 27.7758C55.9787 26.4217 52.3515 26.7079 50.1105 28.2388C49.3322 28.7705 48.728 29.4213 44.7243 34.0415L40.847 38.5155L40.3167 37.9353C39.9756 37.562 39.5274 37.2275 39.0599 36.9973L38.3333 36.6394L34.2044 36.6061L30.0755 36.5728L30.1247 36.3329C30.1517 36.201 30.2039 35.6749 30.2407 35.164C30.4795 31.8437 32.1753 25.9712 32.8505 26.1259C32.978 26.1551 33.4756 26.2841 33.9564 26.4126C38.9835 27.756 42.2876 24.2539 42.971 16.8577C43.2772 13.5435 43.1638 13.2528 41.5158 13.1296C33.3494 12.5188 28.2647 18 30.7484 24.7364L30.9534 25.2926L30.6352 25.9933L30.317 26.6939L30.2547 26.2021C30.2204 25.9316 30.1381 25.1939 30.0719 24.5627C29.6696 20.732 28.6728 17.0552 27.2845 14.2815L26.7062 13.126L26.9237 12.6421C29.6199 6.64192 26.4439 2.18688 18.7103 1.12085C17.1562 0.90653 14.0602 0.805326 13.6816 0.956476ZM17.4618 2.82328C24.0584 3.47969 26.8517 6.03798 25.7447 10.4095C25.5174 11.3076 25.5058 11.3091 24.8634 10.5284C23.1541 8.45113 20.0682 6.43132 19.1767 6.80619C18.1466 7.23931 18.4234 8.05702 19.8579 8.81813C21.3632 9.61694 23.1104 11.1023 23.9338 12.2833C24.2505 12.7376 24.168 12.769 22.4681 12.8409C17.6909 13.0431 15.2678 10.2165 14.9264 4.0433L14.8523 2.70448H15.5601C15.9494 2.70448 16.8051 2.75793 17.4618 2.82328ZM41.2243 15.4253C41.2243 19.7601 39.573 23.747 37.439 24.5647C36.5093 24.9209 33.5739 24.7831 33.5739 24.3832C33.5739 23.9026 36.1291 20.9233 37.2847 20.0567C38.2763 19.3128 38.4445 18.8221 37.8959 18.2736C37.1686 17.5462 34.7382 19.3678 32.8608 22.0475L32.211 22.975L32.1337 22.5393C31.3185 17.9435 34.4532 15.0613 40.3773 14.9596L41.2243 14.9451V15.4253ZM53.5742 28.8755C53.5742 29.051 47.1925 43.3668 46.894 43.8605C45.5099 46.1514 43.3122 47.7216 40.4022 48.4989C39.9227 48.627 37.8089 49.4157 35.7049 50.2516C27.965 53.3266 27.2191 53.2999 18.8196 49.6496C10.5466 46.0541 8.03494 45.3021 2.72645 44.8312L1.87944 44.756V40.8462V36.9365L2.83574 36.0307C7.86358 31.2685 13.2364 31.4435 22.3994 36.6682C25.2103 38.2709 26.2086 38.4403 32.8635 38.4445C37.4166 38.4473 37.8141 38.4625 38.2188 38.65C39.6641 39.319 40.0337 41.1649 38.9507 42.305C38.2801 43.011 38.7211 42.9719 30.6231 43.044C22.7212 43.1143 22.3932 43.1372 20.5549 43.7479L20.0348 43.9205L20.3336 44.761C20.5429 45.3495 20.6802 45.59 20.7916 45.5635C20.8792 45.5426 21.4672 45.3987 22.0983 45.2436L23.2459 44.9617L30.7324 44.895C39.0476 44.8211 38.6402 44.8586 39.7209 44.0672C40.6623 43.3779 41.2349 42.3788 41.4047 41.1295C41.5354 40.1674 50.3487 30.127 51.6517 29.4558C52.3555 29.0933 53.5742 28.7253 53.5742 28.8755Z" fill="white"/>
</svg>
