<svg width="49" height="58" viewBox="0 0 49 58" fill="none" xmlns="http://www.w3.org/2000/svg">
<path fill-rule="evenodd" clip-rule="evenodd" d="M9.72925 0.657793C1.07426 2.49244 -2.26164 14.7803 2.6714 26.6563C3.02968 27.5189 3.63567 29.1961 4.01815 30.3833C4.7588 32.6826 4.94085 32.9861 5.57977 32.9861C5.85011 32.9861 20.6364 29.6846 21.6115 29.4066C22.4517 29.1669 22.5093 29.0109 22.7395 26.3519C22.853 25.0404 23.0533 23.1104 23.1846 22.0629C24.7765 9.366 18.1769 -1.13294 9.72925 0.657793ZM12.8003 2.90517C15.1271 3.39812 17.4282 5.28207 18.8895 7.89075C20.6107 10.963 21.5584 17.0438 20.986 21.3419C20.8921 22.0466 20.7169 23.6763 20.5966 24.9637C20.3362 27.7498 20.7531 27.2906 17.8919 27.9435C10.401 29.653 6.45744 30.534 6.43929 30.5018C6.42798 30.4818 6.20021 29.7848 5.93324 28.9529C5.66626 28.1211 5.19472 26.8355 4.88528 26.0961C-0.189364 13.9679 4.2076 1.08486 12.8003 2.90517ZM36.3742 9.90992C29.2127 11.1184 24.7119 20.4924 26.0746 31.3617C26.2059 32.4092 26.4051 34.3249 26.5172 35.6189C26.8041 38.9313 25.6041 38.273 35.4007 40.4921C45.428 42.7636 44.2244 42.863 45.2453 39.6788C45.6253 38.4933 46.2292 36.8177 46.5873 35.955C52.2014 22.4312 46.6139 8.18204 36.3742 9.90992ZM38.9699 12.196C45.8994 13.4512 48.8207 24.5539 44.7939 34.3305C44.4766 35.1008 43.9061 36.6384 43.526 37.7475C43.146 38.8567 42.825 39.7825 42.8128 39.805C42.7763 39.8722 29.0304 36.7521 28.9327 36.6543C28.9045 36.6261 28.7824 35.5498 28.6613 34.2624C28.5401 32.975 28.3659 31.3673 28.2741 30.6895C26.8646 20.2906 32.25 10.9788 38.9699 12.196ZM13.884 32.8659C4.98006 34.9055 5.75813 34.3841 6.59065 37.754C8.45241 45.2912 11.1371 48.467 15.667 48.4916C20.8429 48.5196 24.1575 44.5124 23.7954 38.6649C23.6275 35.9525 22.5993 31.9892 21.9408 31.5167C21.4342 31.1532 21.1639 31.1984 13.884 32.8659ZM20.8688 34.8918C22.2557 40.1327 21.4669 44.0156 18.7238 45.4518C15.3604 47.2129 12.2851 46.0831 10.5606 42.4529C9.8349 40.925 8.43796 36.5797 8.61968 36.4154C8.72936 36.3161 20.4367 33.704 20.5079 33.7629C20.5516 33.799 20.7141 34.307 20.8688 34.8918ZM27.293 40.8244C26.7959 41.2154 25.8976 44.3216 25.5741 46.7689C24.7177 53.244 28.0287 57.8535 33.5363 57.8535C38.0281 57.8535 40.8147 54.5579 42.6686 47.0528C43.4982 43.6945 44.2639 44.2104 35.4943 42.2193C28.005 40.5189 27.7389 40.4736 27.293 40.8244ZM34.4172 44.2917C37.3833 44.9641 39.9992 45.5495 40.2302 45.5925C40.7456 45.6885 40.7474 45.5907 40.1937 47.61C38.5801 53.4952 36.3596 55.9423 32.9774 55.5629C28.3401 55.0426 26.6304 50.7821 28.4023 44.1614C28.6042 43.4073 28.7457 43.0691 28.8596 43.0691C28.9502 43.0691 31.4511 43.6193 34.4172 44.2917Z" fill="white"/>
</svg>
