<svg width="52" height="64" viewBox="0 0 52 64" fill="none" xmlns="http://www.w3.org/2000/svg">
<path d="M25.4419 7.25407C24.4575 6.80557 24.4199 1.25291 25.3974 0.711069C26.7649 -0.0468803 27.2216 0.77244 27.2216 3.98214C27.2216 7.18167 26.8366 7.88964 25.4419 7.25407Z" fill="white"/>
<path d="M13.0088 8.21049C11.728 6.01147 11.6306 5.36537 12.507 4.88906C13.4367 4.38372 13.8432 4.70004 15.1196 6.9217C16.2361 8.86492 16.3208 9.13162 16.011 9.73055C15.3215 11.0638 14.3984 10.5964 13.0088 8.21049Z" fill="white"/>
<path d="M35.7971 9.08396C35.7971 8.66107 37.8867 5.08323 38.2517 4.8811C39.1499 4.38372 40.2461 5.15563 40.0481 6.14599C39.9597 6.58787 38.0678 9.85 37.7397 10.1263C37.0114 10.7395 35.7971 10.088 35.7971 9.08396Z" fill="white"/>
<path d="M0.808808 15.9515C0.491181 15.3377 0.68454 14.6369 1.26364 14.3027C1.84494 13.9672 5.23752 15.5107 6.05856 16.484C6.66745 17.206 6.02097 18.4261 5.02927 18.4261C4.57468 18.4261 1.00681 16.3342 0.808808 15.9515Z" fill="white"/>
<path d="M45.9961 16.426C46.2243 16.1988 48.3476 14.918 49.518 14.3013C50.6186 13.7214 51.7798 14.8884 51.1799 15.9716C50.9778 16.3365 47.3999 18.4261 46.977 18.4261C45.9238 18.4261 45.2881 17.1295 45.9961 16.426Z" fill="white"/>
<path fill-rule="evenodd" clip-rule="evenodd" d="M10.0705 23.3181C10.0705 18.625 10.7815 17.1256 13.4267 16.2375C15.1069 15.6736 17.0102 16.0878 18.3093 17.3L18.6462 17.6144L18.9831 17.3C21.2597 15.1753 24.9646 15.7127 26.5505 18.3976L26.7758 18.779L27.1325 18.5249C29.1645 17.0781 32.5398 17.931 33.9011 20.2352L34.1262 20.6166L34.4829 20.3625C36.3569 19.0281 39.4345 19.6458 40.9587 21.6624C41.8784 22.8793 41.9226 23.1987 41.9226 28.6368C41.9226 35.4069 41.7485 36.8073 40.1552 42.8664C38.3564 49.7065 38.3491 49.761 38.2868 56.7097C38.25 60.8292 38.372 62.3834 37.6806 62.9575C37.155 63.3938 36.1591 63.2639 34.2658 63.2639C34.1296 63.2639 33.9978 63.2637 33.8706 63.2633V63.2834H18.9172V63.2564C18.5659 63.2619 18.1709 63.2639 17.7273 63.2639C15.8318 63.2639 14.83 63.3986 14.3039 62.9612C13.6052 62.3802 13.7458 60.7898 13.7458 56.5334V50.7946L10.2851 47.5338C2.60666 40.2992 2.32639 38.5259 7.34348 28.9269C7.82517 28.005 8.66061 27.1724 9.5217 26.7555L10.0705 26.4898V23.3181ZM18.9172 60.8157V60.8137L35.7971 60.8137V56.6002C35.7971 50.5188 36.0212 48.7992 37.5791 42.9276C38.3498 40.0232 39.1049 36.8117 39.1049 36.439C39.1049 36.3762 38.9016 36.4096 38.6533 36.5134C36.6694 37.3424 33.9604 36.3565 32.7932 34.3807L32.5678 33.9993L32.2483 34.227C31.3081 34.8964 29.5617 35.137 28.32 34.7683C27.8281 34.6222 27.6465 34.6091 27.6106 34.7171C27.2788 35.7117 25.5464 37.5512 24.1953 38.3427L23.4353 38.788L23.903 39.4184C26.5891 43.0383 28.2299 49.9008 26.6159 50.7644C25.6777 51.2666 24.7715 50.5719 24.7715 49.3505C24.7715 46.5286 23.5669 43.0925 21.7114 40.6223L20.9126 39.5587L19.6875 39.4813C16.7278 39.2941 12.2854 37.2231 12.2785 36.0272C12.2702 34.6145 13.1994 34.5456 15.8195 35.7643C19.2241 37.3478 21.0656 37.4251 23.1689 36.0729C23.7387 35.7067 24.862 34.6394 24.7639 34.5576C24.3547 34.2158 12.3386 28.7899 11.8921 28.7452C10.3818 28.5939 9.97482 29.0414 8.25412 32.7464C5.33176 39.0389 5.4819 39.5611 11.9851 45.7217C14.2226 47.8413 16.0847 49.6923 16.123 49.835C16.1613 49.9776 16.1933 52.5063 16.1943 55.454L16.196 60.8137H18.4685C18.6252 60.8137 18.7749 60.8143 18.9172 60.8157ZM17.08 19.7613C16.8039 19.2327 16.6145 19.0433 16.0859 18.7672C15.708 18.5698 15.2383 18.4261 14.9709 18.4261C14.1662 18.4261 13.2585 19.002 12.8598 19.7654L12.5166 20.4224L12.582 26.3124L12.998 26.4201C13.227 26.4794 14.2951 26.9377 15.372 27.4385C16.4489 27.9395 17.3503 28.3492 17.3755 28.3492C17.4006 28.3492 17.4211 26.5638 17.4211 24.3817V20.4142L17.08 19.7613ZM24.4304 19.7613C24.1543 19.2327 23.9648 19.0433 23.4362 18.7672C23.0586 18.5698 22.5888 18.4261 22.3213 18.4261C21.5188 18.4261 20.6089 19.0022 20.2124 19.7613L19.8713 20.4142V29.5333L22.5051 30.7685C23.9538 31.4478 25.1384 31.9946 25.1377 31.9834C25.1369 31.9723 25.0542 31.6926 24.9538 31.3618C24.8047 30.87 24.7715 29.8181 24.7715 25.5873V20.4142L24.4304 19.7613ZM31.781 21.599C31.5049 21.0703 31.3154 20.8809 30.7868 20.6048C30.4089 20.4074 29.9392 20.2637 29.6718 20.2637C28.8694 20.2637 27.9594 20.8398 27.5627 21.599L27.2216 22.2518V30.5265L27.5627 31.1793C28.469 32.9142 30.8745 32.9142 31.781 31.1793L32.122 30.5265V22.2518L31.781 21.599ZM39.1313 23.4366C38.8552 22.908 38.6657 22.7185 38.1372 22.4424C37.7595 22.2451 37.2898 22.1014 37.0222 22.1014C36.2197 22.1014 35.3098 22.6774 34.9133 23.4366L34.5722 24.0894V32.3641L34.9133 33.0169C35.8195 34.7519 38.2251 34.7519 39.1313 33.0169L39.4724 32.3641V24.0894L39.1313 23.4366Z" fill="white"/>
</svg>
