<svg width="59" height="53" viewBox="0 0 59 53" fill="none" xmlns="http://www.w3.org/2000/svg">
<path fill-rule="evenodd" clip-rule="evenodd" d="M29.0226 0.719846C28.5302 0.981872 28.4609 1.4433 28.501 4.19336L28.5371 6.67361L28.855 6.9413C29.2611 7.28349 29.7389 7.28349 30.145 6.9413L30.4629 6.67361L30.499 4.19336C30.5397 1.406 30.4725 0.977209 29.9544 0.714628C29.5505 0.509892 29.4158 0.510669 29.0226 0.719846ZM18.6665 3.67508C17.6718 4.14706 19.1115 8.09732 20.2783 8.09732C21.4599 8.09732 21.3522 6.67183 19.9706 4.02926C19.7492 3.6058 19.1533 3.44392 18.6665 3.67508ZM39.3896 3.67808C39.1096 3.81064 39.0192 3.97918 38.2879 5.73132C37.6059 7.36543 37.6814 7.87427 38.6329 8.05302C39.4971 8.21535 41.2586 4.71486 40.6827 3.97963C40.3666 3.57615 39.8562 3.45713 39.3896 3.67808ZM49.1443 8.62559C48.7412 8.68955 44.9059 12.5554 44.9059 12.8977C44.9059 13.37 45.4174 13.8708 45.8998 13.8708C46.3904 13.8708 50.1584 10.3348 50.2891 9.75186C50.4296 9.12455 49.8144 8.51923 49.1443 8.62559ZM9.08116 8.87274C8.3163 9.46241 8.50095 9.79827 10.8362 12.0666C12.8828 14.0545 13.0669 14.1531 13.7139 13.6076C14.4129 13.0184 14.2701 12.7604 12.0429 10.5873C9.88997 8.48681 9.71394 8.38489 9.08116 8.87274ZM26.6533 10.2599C13.9217 12.2924 6.55425 25.4934 11.8741 36.7412C12.1508 37.3265 12.1537 37.3536 11.9468 37.4286C11.2764 37.6717 6.38241 38.2511 4.06892 38.3613C2.33734 38.4438 1.76335 38.6369 1.47404 39.2346C1.01141 40.1901 1.19651 40.4568 3.79671 42.5805C5.03677 43.5933 6.05129 44.4666 6.05129 44.5214C6.05129 44.5761 5.51605 46.0219 4.86187 47.7343C2.84392 53.0167 3.09291 53.2213 9.84613 51.8321C14.1094 50.9551 18.6969 49.5074 22.6187 47.8016L24.0634 47.1732L24.6577 47.3382C27.4578 48.1152 31.4239 48.1198 34.3654 47.3493L34.9829 47.1875L36.008 47.6412C39.8602 49.3461 44.924 50.9603 49.1539 51.8317C55.9154 53.2245 56.1773 53.0069 54.1371 47.6913C53.4835 45.9885 52.9487 44.5561 52.9487 44.5085C52.9487 44.4609 53.9632 43.5933 55.2033 42.5805C57.8035 40.4568 57.9886 40.1901 57.526 39.2346C57.2366 38.6369 56.6627 38.4438 54.9311 38.3613C53.1813 38.2779 50.8448 38.0373 48.814 37.7314C46.5915 37.3964 46.7811 37.5442 47.2361 36.5023C53.1503 22.9589 41.3499 7.91368 26.6533 10.2599ZM32.7284 12.2543C53.1867 16.2793 50.3396 46.0374 29.5 45.9976C7.88097 45.9564 6.10703 14.6878 27.5743 12.0531C28.4334 11.9477 31.847 12.0809 32.7284 12.2543ZM28.889 14.1206C28.7266 14.2636 27.7736 16.056 26.6607 18.3119C25.5911 20.4797 24.6707 22.2815 24.6153 22.3158C24.5599 22.3501 22.6415 22.6421 20.3522 22.9646C15.593 23.6352 15.4105 23.6718 15.1744 24.0022C14.7267 24.6285 14.763 24.6765 18.3409 28.1904L21.6815 31.4713L20.9463 35.7244C19.7756 42.4972 19.5274 42.3078 25.4855 39.1893L29.508 37.084L33.5293 39.1893C39.4752 42.3024 39.2139 42.5013 38.0545 35.7433L37.3212 31.4687L40.6604 28.1892C43.6688 25.2345 43.9997 24.8737 43.9997 24.5479C43.9997 24.2111 43.5975 23.6453 43.3534 23.6388C43.0813 23.6316 34.3639 22.3389 34.3243 22.2999C34.2983 22.2744 33.4038 20.4797 32.3365 18.3119C30.3516 14.2804 30.09 13.8708 29.5 13.8708C29.32 13.8708 29.0451 13.9831 28.889 14.1206ZM31.1454 20.3066C33.2525 24.5873 32.4703 23.9993 36.9224 24.6495C38.9769 24.9496 40.7331 25.1952 40.8249 25.1954C40.9168 25.1955 39.7061 26.4595 38.1346 28.0041C36.563 29.5487 35.2772 30.8815 35.2772 30.9656C35.2772 31.0498 35.5614 32.7634 35.9087 34.7735C36.2561 36.7836 36.5148 38.4533 36.4836 38.4838C36.4526 38.5143 34.9322 37.7603 33.1051 36.8084C29.1024 34.7227 29.9098 34.7225 25.9031 36.8102C24.0737 37.7633 22.5528 38.5195 22.5233 38.4906C22.4937 38.4616 22.753 36.7764 23.0995 34.7457C23.8571 30.3049 24.1452 31.1629 20.8144 27.9389L18.0374 25.2511L19.3225 25.059C20.0293 24.9533 21.7786 24.6956 23.2097 24.4862C26.3382 24.0286 25.7715 24.5385 27.8546 20.3066C28.7254 18.5378 29.4658 17.0906 29.5 17.0906C29.5342 17.0906 30.2746 18.5378 31.1454 20.3066ZM4.06892 18.0019C2.90328 18.6571 3.38856 19.4409 5.48615 20.2911C7.08881 20.9407 7.41438 20.983 7.81221 20.593C8.58251 19.8381 8.1337 19.2706 6.14282 18.4821C4.47966 17.8234 4.41374 17.8081 4.06892 18.0019ZM52.8354 18.4861C50.8658 19.2724 50.3404 19.9664 51.2082 20.6354C52.3189 21.4917 56.1024 19.3321 55.2956 18.3022C54.8554 17.7403 54.6684 17.7543 52.8354 18.4861ZM0.778733 28.3549C0.388941 28.7369 0.409218 29.2312 0.831748 29.6453L1.16286 29.9698H3.899H6.63513L6.96625 29.6453C7.37688 29.2428 7.38844 28.8717 7.00408 28.424L6.7108 28.0824H3.88382H1.05672L0.778733 28.3549ZM51.9959 28.424C51.6116 28.8717 51.6231 29.2428 52.0338 29.6453L52.3649 29.9698H55.101H57.8371L58.1683 29.6453C58.5908 29.2312 58.6111 28.7369 58.2213 28.3549L57.9433 28.0824H55.1162H52.2892L51.9959 28.424ZM13.6643 39.8246C15.0805 41.9746 17.7829 44.3203 20.4875 45.7475L21.3871 46.222L20.6885 46.5278C17.0501 48.1201 11.0348 49.7896 6.13931 50.5654L5.83074 50.6143L6.03872 50.0903C6.15302 49.8021 6.64204 48.5307 7.1254 47.265L8.00433 44.9636L8.41542 44.8983C12.4794 44.2524 13.5277 43.898 13.5277 43.1705C13.5277 42.796 13.1986 42.3008 12.9011 42.2277C12.5805 42.1487 12.5985 42.1462 10.2992 42.6024C9.3647 42.7879 8.34417 42.9694 8.03129 43.0059L7.46263 43.072L5.79744 41.7175C4.88158 40.9725 4.14504 40.3503 4.16078 40.335C4.17653 40.3195 4.87591 40.2511 5.71508 40.183C7.44972 40.0422 10.9294 39.5958 12.1117 39.3625C13.2456 39.1387 13.2046 39.1265 13.6643 39.8246ZM47.0647 39.3969C48.6076 39.673 51.4938 40.0366 53.3422 40.188C54.1506 40.2541 54.8258 40.3219 54.843 40.3385C54.8599 40.3553 54.1242 40.9773 53.2079 41.7207L51.5418 43.0726L50.9709 43.0061C50.6569 42.9695 49.6353 42.7879 48.7008 42.6024C46.4015 42.1462 46.4195 42.1487 46.0989 42.2277C45.8014 42.3008 45.4723 42.796 45.4723 43.1705C45.4723 43.8517 46.3935 44.2021 49.5781 44.7322C51.2215 45.0058 50.8227 44.5178 52.0831 47.7972C53.3414 51.0711 53.4317 50.6555 51.5327 50.3301C47.1739 49.5835 39.8741 47.4432 37.7934 46.3018C37.6767 46.2379 37.8826 46.0794 38.5213 45.742C41.2062 44.3232 43.5193 42.3446 45.1089 40.1069C45.4645 39.6062 45.7839 39.194 45.8186 39.1909C45.8534 39.1877 46.4141 39.2804 47.0647 39.3969Z" fill="white"/>
</svg>
